<?xml version="1.0" encoding="utf-8"?>
<!-- Generator: Adobe Illustrator 26.0.3, SVG Export Plug-In . SVG Version: 6.00 Build 0)  -->
<svg version="1.1" xmlns="http://www.w3.org/2000/svg" xmlns:xlink="http://www.w3.org/1999/xlink" x="0px" y="0px"
	 viewBox="0 0 750 500" style="enable-background:new 0 0 750 500;" xml:space="preserve">
<style type="text/css">
	.st0{opacity:7.000000e-02;fill:#606060;}
	.st1{clip-path:url(#SVGID_00000085972321457269012990000012969489754007344013_);fill:#009EE3;}
	.st2{clip-path:url(#SVGID_00000085972321457269012990000012969489754007344013_);}
	.st3{fill:#FBFAF8;}
	.st4{opacity:0.11;clip-path:url(#SVGID_00000085972321457269012990000012969489754007344013_);fill:#FFFFFF;}
	.st5{opacity:0.22;clip-path:url(#SVGID_00000085972321457269012990000012969489754007344013_);fill:#FFFFFF;}
	.st6{opacity:0.12;clip-path:url(#SVGID_00000085972321457269012990000012969489754007344013_);fill:#242E36;}
	.st7{opacity:0.41;fill-rule:evenodd;clip-rule:evenodd;fill:#606060;}
</style>
<g id="BACKGROUND">
</g>
<g id="OBJECTS">
	<ellipse class="st0" cx="384.2" cy="452.4" rx="114.2" ry="6.3"/>
	<g>
		<defs>
			<path id="SVGID_1_" d="M514.4,315c0,84-63.5,132.4-132.3,132.4c-68.8,0-128.2-52.7-128.2-136.7c0-120.3,59.4-246.5,128.2-246.5
				C450.9,64.2,514.4,196.8,514.4,315z"/>
		</defs>
		<clipPath id="SVGID_00000137093817210139455810000014909631793389036722_">
			<use xlink:href="#SVGID_1_"  style="overflow:visible;"/>
		</clipPath>
		
			<rect x="214.8" y="-10.5" style="clip-path:url(#SVGID_00000137093817210139455810000014909631793389036722_);fill:#009EE3;" width="338.8" height="473.7"/>
		<g style="clip-path:url(#SVGID_00000137093817210139455810000014909631793389036722_);">
			<path class="st3" d="M260.1,418.8l2.9-3.3l3.2-3.6c2.2-2.4,4.4-4.8,6.7-7.1c4.6-4.7,9.5-9.1,14.7-13.3
				c10.3-8.4,21.9-15.7,34.9-20.9c6.5-2.6,13.4-4.6,20.6-5.8c7.2-1.1,14.7-1.3,22.3-0.5l2.8,0.4c0.9,0.1,1.9,0.2,2.8,0.5l5.6,1.3
				c3.6,1.1,7.3,2.2,10.7,3.8c3.6,1.4,6.8,3.3,10.1,5.1l4.7,3.1l1.2,0.8c0.4,0.3,0.8,0.5,1.1,0.7l1.9,1.4
				c5.2,3.6,10.3,7.2,15.4,10.7c5.1,3.5,10.2,6.7,15.3,9.8c5.1,3,10.1,5.8,15,7.9c4.9,2.1,9.6,3.6,13.6,3.9l1.5,0.1
				c0.5,0,0.9,0,1.4,0l0.7,0l0.7-0.1c0.4-0.1,0.9-0.1,1.3-0.1c0.8-0.3,1.7-0.3,2.5-0.6c0.4-0.1,0.8-0.2,1.3-0.4
				c0.4-0.2,0.8-0.3,1.3-0.5c3.5-1.3,7.4-3.8,11.5-7c4.2-3.2,8.5-7.1,13.1-11.2c4.6-4.1,9.3-8.5,15-12.7l6.1,3.2
				c-0.3,7.1-1.7,13.9-4,20.5c-2.3,6.6-5.5,13-10,19.1c-0.6,0.8-1.1,1.5-1.7,2.3l-1.9,2.2c-1.3,1.5-2.8,2.9-4.3,4.2
				c-0.7,0.7-1.6,1.4-2.4,2l-2.6,1.9c-0.9,0.6-1.9,1.2-2.8,1.7c-0.9,0.6-1.9,1.1-2.9,1.6l-3.1,1.4c-1,0.5-2.2,0.8-3.3,1.1
				c-2.2,0.8-4.5,1.2-6.8,1.6c-1.1,0.2-2.3,0.3-3.4,0.4l-1.7,0.2c-0.6,0-1.1,0-1.7,0l-3.4,0l-3.3-0.3l-1.6-0.2l-1.6-0.3l-3.1-0.6
				c-1-0.2-2-0.5-3-0.7c-1-0.3-2-0.5-2.9-0.8c-1.9-0.6-3.8-1.2-5.5-1.9l-2.7-1.1c-0.9-0.4-1.7-0.8-2.5-1.1
				c-6.7-3.1-12.8-6.7-18.5-10.3c-5.8-3.7-11.1-7.6-16.4-11.5c-5.3-3.9-10.4-7.9-15.4-12l-1.9-1.5c-0.3-0.3-0.6-0.5-0.8-0.7
				l-0.8-0.6l-3.2-2.4l-3.3-2.1c-0.6-0.3-1.1-0.8-1.7-1l-1.7-0.9c-2.2-1.3-4.6-2.2-7-3.2l-3.7-1.2c-1.2-0.4-2.5-0.6-3.8-0.9
				c-10.1-2.2-21.3-1.7-32.4,1.2c-11.2,2.8-22.3,7.6-33,13.5c-5.4,3-10.7,6.2-15.9,9.6c-2.6,1.7-5.2,3.5-7.8,5.2l-3.9,2.7l-2,1.4
				l-1.1,0.7l-0.6,0.4l-0.7,0.4L260.1,418.8z"/>
		</g>
		<g style="clip-path:url(#SVGID_00000137093817210139455810000014909631793389036722_);">
			<path class="st3" d="M243.6,407c-0.8-4.2-1.2-8.2-1.4-12.3c-0.2-4.1-0.2-8.2-0.1-12.3c0.3-8.2,1.3-16.4,3.1-24.5
				c0.9-4.1,1.9-8.1,3.2-12.2c1.3-4,2.8-8.1,4.5-12c3.5-7.9,8.1-15.7,14.1-22.7c6-7,13.7-13.3,22.6-17.6c4.5-2.1,9.2-3.8,14-4.7
				c4.8-1,9.7-1.4,14.5-1.3l3.6,0.2l3.4,0.3c2.2,0.2,4.4,0.5,6.5,0.9c4.3,0.7,8.5,1.6,12.6,2.6c8.2,2.1,16,4.7,23.5,7.5
				c15.1,5.7,29.5,12.1,43.8,18.1c14.3,6,28.4,11.8,42.7,15.7c7.1,2,14.3,3.4,21.4,3.9c7.1,0.5,14,0,20.5-1.9
				c6.5-2,12.6-5.4,17.8-10.2c2.6-2.4,5-5.1,7.3-8.1c2.3-2.9,4.3-6.1,6.2-9.4l6.3,2.9c-2.8,7.6-6.6,15.1-12.1,21.8
				c-5.4,6.6-12.6,12.3-20.8,15.8c-8.2,3.6-17,5.1-25.6,5.4c-8.6,0.2-17-0.7-25.2-2.2c-16.3-3-31.6-8.1-46.6-13.3l-22.1-8
				c-7.3-2.7-14.5-5.3-21.8-7.6c-7.2-2.4-14.4-4.5-21.4-6.1c-3.5-0.8-7-1.4-10.5-1.9c-1.7-0.3-3.4-0.4-5.1-0.6l-2.5-0.2l-2.3-0.1
				c-6.1,0-11.8,1.3-17,3.8c-5.2,2.5-9.9,6.4-14.1,11.2c-4.2,4.8-7.9,10.5-11.3,16.7c-1.7,3.1-3.3,6.3-4.9,9.5
				c-1.5,3.3-3,6.6-4.4,10c-5.7,13.6-10.5,28.3-15.6,43.1L243.6,407z"/>
		</g>
		<g style="clip-path:url(#SVGID_00000137093817210139455810000014909631793389036722_);">
			<path class="st3" d="M211.3,177.6c-0.8-4.2-1.2-8.2-1.4-12.3c-0.2-4.1-0.2-8.2-0.1-12.3c0.3-8.2,1.3-16.4,3.1-24.5
				c0.9-4.1,1.9-8.1,3.2-12.2c1.3-4,2.8-8.1,4.5-12c3.5-7.9,8.1-15.7,14.1-22.7c6-7,13.7-13.3,22.6-17.6c4.5-2.1,9.2-3.8,14-4.7
				c4.8-1,9.7-1.4,14.5-1.3l3.6,0.2l3.4,0.3c2.2,0.2,4.4,0.5,6.5,0.9c4.3,0.7,8.5,1.6,12.6,2.6c8.2,2.1,16,4.7,23.5,7.5
				c15.1,5.7,29.5,12.1,43.8,18.1c14.3,6,28.4,11.8,42.7,15.7c7.1,2,14.3,3.4,21.4,3.9c7.1,0.5,14,0,20.5-1.9
				c6.5-2,12.6-5.4,17.8-10.2c2.6-2.4,5-5.1,7.3-8.1c2.3-2.9,4.3-6.1,6.2-9.4l6.3,2.9c-2.8,7.6-6.6,15.1-12.1,21.8
				c-5.4,6.6-12.6,12.3-20.8,15.8c-8.2,3.6-17,5.1-25.6,5.4c-8.6,0.2-17-0.7-25.2-2.2c-16.3-3-31.6-8.1-46.6-13.3l-22.1-8
				c-7.3-2.7-14.5-5.3-21.8-7.6c-7.2-2.4-14.4-4.5-21.4-6.1c-3.5-0.8-7-1.4-10.5-1.9c-1.7-0.3-3.4-0.4-5.1-0.6l-2.5-0.2l-2.3-0.1
				c-6.1,0-11.8,1.3-17,3.8c-5.2,2.5-9.9,6.4-14.1,11.2c-4.2,4.8-7.9,10.5-11.3,16.7c-1.7,3.1-3.3,6.3-4.9,9.5
				c-1.5,3.3-3,6.6-4.4,10c-5.7,13.6-10.5,28.3-15.6,43.1L211.3,177.6z"/>
		</g>
		<g style="clip-path:url(#SVGID_00000137093817210139455810000014909631793389036722_);">
			<path class="st3" d="M230.9,248c-0.8-4.2-1.2-8.2-1.4-12.3c-0.2-4.1-0.2-8.2-0.1-12.3c0.3-8.2,1.3-16.4,3.1-24.5
				c0.9-4.1,1.9-8.1,3.2-12.2c1.3-4,2.8-8.1,4.5-12c3.5-7.9,8.1-15.7,14.1-22.7c6-7,13.7-13.3,22.6-17.6c4.5-2.1,9.2-3.8,14-4.7
				c4.8-1,9.7-1.4,14.5-1.3l3.6,0.2l3.4,0.3c2.2,0.2,4.4,0.5,6.5,0.9c4.3,0.7,8.5,1.6,12.6,2.6c8.2,2.1,16,4.7,23.5,7.5
				c15.1,5.7,29.5,12.1,43.8,18.1c14.3,6,28.4,11.8,42.7,15.7c7.1,2,14.3,3.4,21.4,3.9c7.1,0.5,14,0,20.5-1.9
				c6.5-2,12.6-5.4,17.8-10.2c2.6-2.4,5-5.1,7.3-8.1c2.3-2.9,4.3-6.1,6.2-9.4l6.3,2.9c-2.8,7.6-6.6,15.1-12.1,21.8
				c-5.4,6.6-12.6,12.3-20.8,15.8c-8.2,3.6-17,5.1-25.6,5.4c-8.6,0.2-17-0.7-25.2-2.2c-16.3-3-31.6-8.1-46.6-13.3l-22.1-8
				c-7.3-2.7-14.5-5.3-21.8-7.6c-7.2-2.4-14.4-4.5-21.4-6.1c-3.5-0.8-7-1.4-10.5-1.9c-1.7-0.3-3.4-0.4-5.1-0.6l-2.5-0.2l-2.3-0.1
				c-6.1,0-11.8,1.3-17,3.8c-5.2,2.5-9.9,6.4-14.1,11.2c-4.2,4.8-7.9,10.5-11.3,16.7c-1.7,3.1-3.3,6.3-4.9,9.5
				c-1.5,3.3-3,6.6-4.4,10c-5.7,13.6-10.5,28.3-15.6,43.1L230.9,248z"/>
		</g>
		<g style="clip-path:url(#SVGID_00000137093817210139455810000014909631793389036722_);">
			<path class="st3" d="M237.4,262.5c1.4-1.4-4-4.1-4.4-3.1c-1.1,0.4-0.8,0.4-1.1,0.5l-0.2,0.1c0,0,0,0-0.1,0c0,0,0,0,0-0.1l0.3-0.4
				l0.7-1.1l1.5-2.2c1-1.5,2.1-3,3.1-4.4c2.1-2.9,4.4-5.8,6.7-8.6c4.7-5.6,9.8-10.9,15.5-15.8c5.6-4.9,11.8-9.4,18.5-13.1
				c6.7-3.8,14-6.8,21.8-8.7c7.7-1.9,15.9-2.7,24-2.2c4.1,0.3,8.1,0.8,12.1,1.6c2,0.4,4,0.9,5.9,1.4c1,0.3,1.9,0.6,2.9,0.9l2.7,0.9
				c14.3,4.8,27.8,10.5,41,16.1c13.2,5.7,26.1,11.4,38.5,17.1c12.4,5.6,24.5,11.2,36.1,15.5c5.8,2.1,11.5,3.9,16.9,5
				c5.4,1.1,10.5,1.7,15.5,1.4c4.9-0.3,9.9-1.7,15.1-4.6c2.6-1.4,5.2-3.2,7.8-5.2c2.6-2.1,5.2-4.4,7.9-6.8l6.2,3
				c-0.8,7.8-3.4,15.6-8.2,22.8c-2.4,3.6-5.3,7-8.9,10c-3.5,3-7.6,5.4-11.8,7.4c-8.6,3.8-17.9,5.2-26.5,5.1
				c-8.7-0.1-16.9-1.5-24.6-3.5c-15.4-4.1-29.1-10.5-41.9-17.5c-12.8-7.1-24.7-15.1-36.4-22.8l-8.8-5.7c-2.9-1.8-5.9-3.7-8.8-5.4
				c-5.9-3.6-11.8-6.8-17.8-9.7l-2.2-1c-0.7-0.3-1.4-0.6-2.1-0.9c-1.4-0.6-2.8-1.1-4.3-1.6c-2.9-1-5.8-1.8-8.8-2.3
				c-5.9-1.1-12.1-1.3-18.2-0.6c-12.3,1.5-24.6,6.6-35.8,14c-5.6,3.7-11,7.9-16.1,12.5c-2.6,2.3-5,4.7-7.5,7.1l-3.6,3.8l-1.8,1.9
				l-0.9,1l-0.5,0.6l-0.4,0.4l-0.2,0.2c-0.1,0.1-0.1,0.1-0.3,0.2c-0.3,0.2-0.1,0.2-1.2,0.6c-0.4,1-5.9-1.8-4.5-3.2L237.4,262.5z"/>
		</g>
		<path style="opacity:0.11;clip-path:url(#SVGID_00000137093817210139455810000014909631793389036722_);fill:#FFFFFF;" d="
			M507.6,212.2C491.1,107.5,427.8,30.4,366.4,40.1c-12.3,1.9-23.6,7.2-33.7,15.3c-40.2,32.1-60.8,108.2-47.6,192
			c16.5,104.8,79.8,181.8,141.3,172.1c7.5-1.2,14.5-3.6,21.2-7.1C495.8,387.1,522.1,304.3,507.6,212.2z"/>
		
			<ellipse transform="matrix(0.9878 -0.156 0.156 0.9878 -22.474 64.8526)" style="opacity:0.22;clip-path:url(#SVGID_00000137093817210139455810000014909631793389036722_);fill:#FFFFFF;" cx="402.1" cy="175.7" rx="40.9" ry="69.7"/>
		<path style="opacity:0.12;clip-path:url(#SVGID_00000137093817210139455810000014909631793389036722_);fill:#242E36;" d="
			M580.8,291.4c11.6,65.9-57.1,120.9-131,123.4c-6.7,3.5-13.7,5.9-21.2,7.1c-61.5,9.7-124.7-67.4-141.3-172.1
			c-13.2-83.7,7.4-159.8,47.6-192c18.2-45,35.5-75.4,35.5-75.4l-81.8,46.7l-51.9,96.1L226.3,294v110.4l75.3,48l162.3,6.5l84.4-15.6
			l67.5-74L580.8,291.4z"/>
	</g>
	<path class="st7" d="M304.6,277.6c1.3,0.7,3,1.6,4.3,0.8c1.5-0.8,12.5-4.8,17.8-4.3c1.6,0.2,5.8,0,7.6-0.2c0.6-0.1,1.1-0.1,1.2-0.6
		c0.1-0.3,0.3-1.1,0.4-1.5c0-0.1,0-0.1,0-0.1c0,0-0.1-0.1-0.1-0.1c-1,0-5,0.2-6.2,0.1c-1.5,0-2.1-1.1-2.2-1.5c0,0,0-0.1,0-0.1
		c0,0,0,0,0.1,0c3.9-0.3,7.3-0.4,11,0.8c0,0,0.1,0,0.1,0c0,0,0.1-0.1,0.1-0.1c2.4-7.9-2.8-26.6-12.4-36.3c-0.1-0.1-0.1-0.1-0.2,0
		c-0.1,0-0.1,0.1-0.1,0.2c0.8,2.6,3.8,13,4.6,19.7c0,0,0,0.1-0.1,0.1c0,0-0.1,0-0.1,0c-0.9-1.3-4.7-6.6-5.7-8c0-0.1-0.1-0.1-0.2-0.1
		c-0.1,0-0.1,0.1-0.1,0.1c-0.2,1.2-0.7,4.7-1.1,5.7c-0.2,0.5-0.8,0.9-1.3,0.8c-3.6-1-14.1-4.1-20.6-6.7c0,0,0,0-0.1-0.1
		c0,0,0-0.1,0-0.1c3.9-2.8,6-6.2,4.7-11c0-0.1-0.1-0.1-0.1-0.1c-0.1,0-0.1,0-0.2,0.1c-0.8,1.3-4,6-5.5,8.3c0,0-0.1,0-0.1,0
		c0,0-0.1-0.1,0-0.1c0.7-1.6,1.1-3,0.5-4.5c0-0.1-0.1-0.1-0.1-0.1c-0.1,0-0.1,0-0.2,0C285.3,254.5,295.5,273,304.6,277.6z
		 M318.6,257.7c0.1-0.1,0.4-0.2,0.5-0.1c0.5,0.3,1.7,1.1,2.6,1.6c0.2,0.1,0.2,0.3,0.2,0.4c0,0.2-0.2,0.3-0.4,0.3
		c-1.3,0.1-3.3,0.4-4.6,0.5c-0.2,0-0.3-0.1-0.4-0.2c-0.1-0.2,0-0.3,0.1-0.5C317.2,259.1,318.2,258.2,318.6,257.7z"/>
</g>
</svg>
