<?xml version="1.0" encoding="UTF-8" standalone="no"?>
<!DOCTYPE svg PUBLIC "-//W3C//DTD SVG 1.1//EN" "http://www.w3.org/Graphics/SVG/1.1/DTD/svg11.dtd">
<svg width="100%" height="100%" viewBox="0 0 1000 1000" version="1.1" xmlns="http://www.w3.org/2000/svg" xmlns:xlink="http://www.w3.org/1999/xlink" xml:space="preserve" xmlns:serif="http://www.serif.com/" style="fill-rule:evenodd;clip-rule:evenodd;stroke-linejoin:round;stroke-miterlimit:2;">
    <g transform="matrix(1.18814,0,0,1.18814,-152.033,-82.4458)">
        <path d="M588.501,98.167C587.658,94.63 584.64,92.034 581.017,91.73C559.563,89.998 538.005,89.998 516.552,91.733C512.93,92.037 509.913,94.632 509.07,98.167C506.196,110.216 499.693,137.509 496.919,149.154C496.138,152.43 493.478,154.926 490.159,155.497C474.918,158.164 459.877,161.871 445.142,166.59C441.938,167.627 438.425,166.653 436.211,164.115C428.341,155.096 409.899,133.951 401.757,124.616C399.367,121.876 395.488,120.98 392.139,122.395C372.338,130.831 353.249,140.85 335.06,152.356C331.994,154.308 330.528,158.008 331.425,161.53C334.48,173.534 341.405,200.723 344.36,212.323C345.191,215.588 343.996,219.033 341.322,221.081C329.067,230.526 317.472,240.798 306.617,251.825C304.262,254.231 300.699,255.002 297.559,253.784C286.399,249.455 260.243,239.302 248.696,234.82C245.306,233.505 241.455,234.514 239.147,237.323C225.534,253.995 213.288,271.737 202.529,290.379C200.722,293.532 201.143,297.489 203.574,300.191C211.858,309.4 230.625,330.257 238.633,339.155C240.885,341.659 241.428,345.265 240.013,348.321C233.55,362.38 228.057,376.864 223.57,391.672C222.603,394.897 219.806,397.235 216.46,397.615C204.566,398.969 176.688,402.135 164.381,403.533C160.768,403.943 157.827,406.626 157.089,410.186C152.784,431.274 150.185,452.676 149.322,474.182C149.187,477.814 151.399,481.122 154.807,482.384C166.421,486.689 192.732,496.435 203.957,500.593C207.115,501.763 209.272,504.704 209.439,508.068C210.25,523.519 212.117,538.897 215.025,554.094C215.668,557.399 214.278,560.77 211.492,562.661C201.59,569.387 178.376,585.146 168.128,592.103C165.12,594.145 163.763,597.887 164.763,601.383C170.751,622.056 178.396,642.214 187.626,661.658C189.194,664.936 192.691,666.837 196.295,666.371C208.58,664.786 236.405,661.188 248.277,659.653C251.618,659.222 254.894,660.823 256.605,663.724C264.504,677.029 273.303,689.778 282.941,701.882C285.046,704.511 285.382,708.141 283.794,711.11C278.151,721.668 264.92,746.409 259.079,757.332C257.364,760.538 257.902,764.483 260.413,767.113C275.322,782.635 291.459,796.931 308.668,809.859C311.58,812.033 315.559,812.091 318.534,810.004C328.675,802.891 351.641,786.774 361.44,779.898C364.197,777.963 367.842,777.859 370.706,779.632C383.883,787.743 397.599,794.941 411.758,801.181C414.843,802.529 416.828,805.588 416.801,808.955C416.712,820.926 416.494,848.982 416.398,861.368C416.37,865.004 418.679,868.246 422.124,869.408C442.54,876.225 463.472,881.384 484.717,884.833C488.306,885.405 491.857,883.607 493.521,880.376C499.194,869.366 512.04,844.422 517.521,833.78C519.063,830.785 522.242,828.999 525.602,829.239C541.039,830.296 556.529,830.296 571.966,829.241C575.325,829.001 578.503,830.787 580.045,833.781C585.528,844.422 598.374,869.366 604.045,880.378C605.709,883.61 609.261,885.408 612.852,884.836C634.097,881.384 655.029,876.225 675.443,869.406C678.887,868.244 681.195,865.002 681.167,861.368C681.074,848.982 680.857,820.926 680.764,808.955C680.738,805.587 682.723,802.527 685.809,801.178C699.969,794.941 713.686,787.743 726.863,779.634C729.726,777.861 733.37,777.966 736.127,779.9C745.927,786.774 768.893,802.891 779.032,810.006C782.008,812.095 785.989,812.036 788.903,809.861C806.109,796.931 822.246,782.635 837.153,767.11C839.663,764.481 840.2,760.538 838.487,757.333C832.648,746.409 819.417,721.668 813.772,711.112C812.184,708.141 812.52,704.51 814.626,701.881C824.265,689.778 833.065,677.029 840.965,663.726C842.676,660.825 845.951,659.224 849.291,659.656C861.163,661.188 888.988,664.786 901.273,666.374C904.878,666.841 908.376,664.939 909.945,661.659C919.172,642.214 926.817,622.056 932.802,601.382C933.802,597.888 932.446,594.146 929.439,592.105C919.192,585.146 895.979,569.387 886.074,562.663C883.288,560.771 881.898,557.4 882.541,554.093C885.451,538.897 887.318,523.519 888.131,508.068C888.298,504.705 890.454,501.765 893.612,500.595C904.837,496.435 931.147,486.689 942.762,482.387C946.172,481.124 948.385,477.815 948.25,474.181C947.383,452.676 944.785,431.274 940.476,410.187C939.738,406.628 936.798,403.946 933.187,403.535C920.88,402.135 893.002,398.969 881.108,397.618C877.761,397.238 874.963,394.899 873.996,391.672C869.511,376.864 864.018,362.38 857.557,348.321C856.142,345.265 856.685,341.66 858.938,339.157C866.943,330.257 885.71,309.4 893.996,300.193C896.428,297.49 896.85,293.532 895.042,290.377C884.28,271.737 872.034,253.995 858.419,237.325C856.111,234.517 852.262,233.508 848.874,234.823C837.325,239.302 811.169,249.455 800.01,253.786C796.87,255.005 793.305,254.234 790.95,251.826C780.097,240.798 768.502,230.526 756.247,221.08C753.574,219.032 752.38,215.587 753.211,212.324C756.163,200.723 763.088,173.534 766.146,161.531C767.043,158.008 765.577,154.306 762.51,152.354C744.319,140.85 725.23,130.831 705.428,122.398C702.08,120.984 698.202,121.879 695.813,124.618C687.669,133.951 669.227,155.096 661.359,164.117C659.145,166.656 655.631,167.629 652.426,166.592C637.691,161.871 622.65,158.164 607.41,155.495C604.091,154.924 601.433,152.429 600.652,149.153C597.875,137.509 591.372,110.216 588.501,98.167ZM548.784,190.378C714.269,190.378 848.622,324.731 848.622,490.216C848.622,655.701 714.269,790.054 548.784,790.054C383.299,790.054 248.946,655.701 248.946,490.216C248.946,324.731 383.299,190.378 548.784,190.378Z" style="fill:rgb(0,174,239);"/>
    </g>
    <path d="M343.066,753.567C358.849,761.755 378.521,772.345 394.113,763.799C412.038,753.972 542.013,705.483 604.446,712.384C623.938,714.538 672.673,712.21 694.066,710.166C700.772,709.525 706.772,709.465 708.425,703.072C709.499,698.918 712.294,689.37 713.669,684.707C713.85,684.091 713.724,683.425 713.33,682.917C712.936,682.41 712.322,682.123 711.68,682.145C699.788,682.564 653.082,684.147 638.576,683.718C620.486,683.182 613.744,669.974 612.066,665.817C611.957,665.524 611.992,665.197 612.161,664.934C612.329,664.671 612.611,664.501 612.922,664.477C658.555,660.885 699.165,660.216 742.58,673.74C743.088,673.899 743.639,673.848 744.11,673.6C744.581,673.351 744.933,672.925 745.088,672.416C773.352,577.143 711.641,350.959 597.86,234.057C597.217,233.405 596.212,233.274 595.423,233.74C594.634,234.205 594.263,235.148 594.522,236.026C603.81,267.866 639.392,393.087 648.541,473.482C648.59,473.937 648.324,474.367 647.896,474.526C647.467,474.686 646.985,474.534 646.725,474.159C636.178,458.929 591.569,394.51 579.736,377.422C579.269,376.748 578.438,376.428 577.64,376.613C576.841,376.798 576.237,377.452 576.114,378.263C573.953,392.937 567.488,435.462 563.54,446.814C561.571,452.475 553.849,457.576 548.072,455.981C504.914,444.063 380.674,405.979 304.361,375.453C304.022,375.318 303.785,375.009 303.741,374.647C303.696,374.285 303.852,373.928 304.148,373.714C350.654,340.128 375.243,299.293 359.194,241.131C358.983,240.374 358.348,239.811 357.571,239.693C356.793,239.575 356.019,239.924 355.593,240.584C345.825,255.713 308.457,313.607 291.017,340.628C290.734,341.065 290.162,341.211 289.703,340.964C289.245,340.716 289.053,340.158 289.262,339.681C298.047,320.592 302.807,303.628 295.623,285.785C295.366,285.157 294.808,284.703 294.141,284.58C293.474,284.457 292.79,284.682 292.326,285.176C115.227,474.148 235.988,698.024 343.066,753.567ZM509.102,513.182C510.748,511.491 513.352,511.182 515.348,512.439C521.691,516.433 535.549,525.159 545.736,531.574C547.537,532.708 548.423,534.858 547.943,536.932C547.463,539.005 545.723,540.548 543.607,540.776C528.247,542.43 504.007,545.042 488.84,546.675C486.744,546.901 484.732,545.788 483.809,543.892C482.886,541.997 483.252,539.726 484.723,538.216C492.862,529.858 503.963,518.458 509.102,513.182Z" style="fill:rgb(0,174,239);"/>
</svg>
